<svg width="208" height="54" viewBox="0 0 208 54" fill="none" xmlns="http://www.w3.org/2000/svg">
<path d="M21.0762 22.5166C19.7655 24.9732 16.3296 25.2506 14.5094 23.0468C12.4638 20.57 13.9614 16.9013 17.1222 16.6461C20.2829 16.3909 22.5493 19.7558 21.0762 22.5166Z" fill="#0C4137"/>
<ellipse cx="34.3749" cy="28.2589" rx="14.2589" ry="16.5917" transform="rotate(-90 34.3749 28.2589)" fill="#FFD672"/>
<path d="M0.147087 21.3664C0.147087 27.6345 -1.15258 34.7382 3.97475 39.1704C9.10207 43.6025 20.2364 45 27.4875 45C34.7387 45 45.9641 43.6025 51.0914 39.1704C56.2188 34.7382 54.828 27.6345 54.828 21.3664L27.4875 21.3664L0.147087 21.3664Z" fill="#68B688"/>
<rect y="28.968" width="55" height="6.45984" fill="#D8F7CD"/>
<path d="M89.484 14.62C89.676 14.98 89.784 15.304 89.808 15.592C89.856 15.88 89.88 16.3 89.88 16.852V36.832C89.88 38.488 89.424 39.46 88.512 39.748C88.056 39.892 87.48 39.964 86.784 39.964C86.088 39.964 85.536 39.904 85.128 39.784C84.72 39.664 84.408 39.52 84.192 39.352C83.976 39.184 83.808 38.944 83.688 38.632C83.568 38.224 83.508 37.6 83.508 36.76V24.7C82.908 25.444 82.032 26.632 80.88 28.264C79.728 29.872 78.996 30.88 78.684 31.288C78.372 31.696 78.156 31.984 78.036 32.152C77.916 32.296 77.616 32.512 77.136 32.8C76.68 33.064 76.176 33.196 75.624 33.196C75.096 33.196 74.604 33.076 74.148 32.836C73.716 32.572 73.404 32.32 73.212 32.08L72.924 31.684C72.444 31.084 71.496 29.812 70.08 27.868C68.664 25.9 67.896 24.844 67.776 24.7V36.832C67.776 37.384 67.752 37.804 67.704 38.092C67.68 38.356 67.572 38.656 67.38 38.992C67.02 39.64 66.084 39.964 64.572 39.964C63.108 39.964 62.196 39.64 61.836 38.992C61.644 38.656 61.524 38.344 61.476 38.056C61.452 37.768 61.44 37.336 61.44 36.76V16.78C61.44 16.228 61.452 15.82 61.476 15.556C61.524 15.268 61.644 14.944 61.836 14.584C62.196 13.96 63.132 13.648 64.644 13.648C65.292 13.648 65.844 13.732 66.3 13.9C66.78 14.044 67.092 14.2 67.236 14.368L67.452 14.584L75.624 25.312C79.704 19.912 82.428 16.348 83.796 14.62C84.204 13.972 85.164 13.648 86.676 13.648C88.212 13.648 89.148 13.972 89.484 14.62ZM111.052 28.264C111.052 29.728 110.68 30.82 109.936 31.54C109.216 32.236 108.412 32.584 107.524 32.584H98.9922C98.9922 33.256 99.3882 33.82 100.18 34.276C100.972 34.732 101.764 34.96 102.556 34.96C103.948 34.96 105.04 34.816 105.832 34.528L106.228 34.384C106.804 34.12 107.284 33.988 107.668 33.988C108.436 33.988 109.096 34.528 109.648 35.608C109.96 36.256 110.116 36.808 110.116 37.264C110.116 39.4 107.56 40.468 102.448 40.468C100.672 40.468 99.0882 40.168 97.6962 39.568C96.3282 38.944 95.2602 38.128 94.4922 37.12C92.9802 35.176 92.2242 33.004 92.2242 30.604C92.2242 27.58 93.1962 25.168 95.1402 23.368C97.1082 21.544 99.5562 20.632 102.484 20.632C105.82 20.632 108.268 21.808 109.828 24.16C110.644 25.408 111.052 26.776 111.052 28.264ZM103.456 29.308C104.368 29.308 104.824 28.924 104.824 28.156C104.824 27.604 104.608 27.16 104.176 26.824C103.768 26.488 103.168 26.32 102.376 26.32C101.608 26.32 100.84 26.644 100.072 27.292C99.3042 27.916 98.9202 28.588 98.9202 29.308H103.456ZM125.713 23.044C125.857 21.7 126.805 21.028 128.557 21.028C129.493 21.028 130.189 21.1 130.645 21.244C131.101 21.388 131.413 21.64 131.581 22C131.773 22.36 131.881 22.684 131.905 22.972C131.953 23.236 131.977 23.644 131.977 24.196V36.796C131.977 37.348 131.953 37.768 131.905 38.056C131.881 38.32 131.785 38.632 131.617 38.992C131.281 39.616 130.453 39.928 129.133 39.928C127.837 39.928 126.961 39.772 126.505 39.46C126.073 39.124 125.821 38.644 125.749 38.02C124.861 39.292 123.373 39.928 121.285 39.928C119.221 39.928 117.301 38.98 115.525 37.084C113.749 35.188 112.861 32.992 112.861 30.496C112.861 27.976 113.749 25.78 115.525 23.908C117.325 22.012 119.293 21.064 121.429 21.064C122.245 21.064 122.989 21.208 123.661 21.496C124.333 21.784 124.801 22.06 125.065 22.324C125.329 22.564 125.545 22.804 125.713 23.044ZM119.161 30.532C119.161 31.324 119.473 32.044 120.097 32.692C120.721 33.316 121.477 33.628 122.365 33.628C123.253 33.628 123.985 33.304 124.561 32.656C125.161 32.008 125.461 31.3 125.461 30.532C125.461 29.74 125.173 29.008 124.597 28.336C124.045 27.664 123.289 27.328 122.329 27.328C121.393 27.328 120.625 27.664 120.025 28.336C119.449 29.008 119.161 29.74 119.161 30.532ZM134.846 15.268C134.846 14.716 134.858 14.308 134.882 14.044C134.93 13.756 135.038 13.432 135.206 13.072C135.542 12.424 136.478 12.1 138.014 12.1C139.478 12.1 140.39 12.424 140.75 13.072C140.942 13.432 141.05 13.756 141.074 14.044C141.122 14.332 141.146 14.752 141.146 15.304V31.972C141.146 32.836 141.218 33.388 141.362 33.628C141.506 33.844 141.818 33.952 142.298 33.952C142.802 33.952 143.138 33.976 143.306 34.024C143.474 34.048 143.678 34.144 143.918 34.312C144.398 34.624 144.638 35.476 144.638 36.868C144.638 38.38 144.398 39.304 143.918 39.64C143.294 40.072 141.806 40.144 139.454 39.856C137.606 39.616 136.406 39.004 135.854 38.02C135.182 36.844 134.846 34.972 134.846 32.404V15.268ZM156.198 27.4L153.858 27.256V32.224C153.858 32.872 153.954 33.34 154.146 33.628C154.362 33.916 154.746 34.06 155.298 34.06C155.874 34.06 156.306 34.084 156.594 34.132C156.906 34.156 157.23 34.264 157.566 34.456C158.118 34.768 158.394 35.572 158.394 36.868C158.394 38.38 158.058 39.304 157.386 39.64C157.026 39.808 156.702 39.916 156.414 39.964C156.15 39.988 155.754 40 155.226 40C152.73 40 150.834 39.436 149.538 38.308C148.242 37.18 147.594 35.272 147.594 32.584V27.256C147.138 27.328 146.646 27.364 146.118 27.364C145.59 27.364 145.146 27.16 144.786 26.752C144.45 26.344 144.282 25.648 144.282 24.664C144.282 23.68 144.342 22.972 144.462 22.54C144.582 22.084 144.75 21.76 144.966 21.568C145.35 21.256 145.83 21.1 146.406 21.1L147.594 21.244V17.536C147.594 16.984 147.606 16.576 147.63 16.312C147.678 16.048 147.798 15.76 147.99 15.448C148.302 14.848 149.226 14.548 150.762 14.548C152.394 14.548 153.366 14.992 153.678 15.88C153.798 16.264 153.858 16.876 153.858 17.716V21.244C154.914 21.148 155.706 21.1 156.234 21.1C156.786 21.1 157.194 21.124 157.458 21.172C157.746 21.196 158.07 21.304 158.43 21.496C159.054 21.808 159.366 22.732 159.366 24.268C159.366 25.78 159.042 26.704 158.394 27.04C158.034 27.208 157.71 27.316 157.422 27.364C157.158 27.388 156.75 27.4 156.198 27.4ZM161.354 24.196C161.354 23.644 161.366 23.236 161.39 22.972C161.438 22.684 161.546 22.36 161.714 22C162.05 21.376 162.986 21.064 164.522 21.064C165.674 21.064 166.49 21.268 166.97 21.676C167.378 22.012 167.594 22.528 167.618 23.224C167.642 23.464 167.654 23.812 167.654 24.268V36.868C167.654 37.42 167.63 37.84 167.582 38.128C167.558 38.392 167.45 38.704 167.258 39.064C166.946 39.688 166.022 40 164.486 40C162.974 40 162.05 39.676 161.714 39.028C161.546 38.668 161.438 38.356 161.39 38.092C161.366 37.828 161.354 37.408 161.354 36.832V24.196ZM167.258 17.536C167.09 17.872 166.778 18.112 166.322 18.256C165.866 18.4 165.254 18.472 164.486 18.472C163.742 18.472 163.142 18.4 162.686 18.256C162.23 18.112 161.906 17.86 161.714 17.5C161.546 17.14 161.438 16.828 161.39 16.564C161.366 16.276 161.354 15.856 161.354 15.304C161.354 14.752 161.366 14.344 161.39 14.08C161.438 13.792 161.546 13.48 161.714 13.144C162.05 12.496 162.986 12.172 164.522 12.172C166.034 12.172 166.946 12.496 167.258 13.144C167.45 13.504 167.558 13.828 167.582 14.116C167.63 14.38 167.654 14.788 167.654 15.34C167.654 15.892 167.63 16.312 167.582 16.6C167.558 16.864 167.45 17.176 167.258 17.536ZM170.53 45.148V24.124C170.53 23.572 170.542 23.164 170.566 22.9C170.614 22.636 170.722 22.336 170.89 22C171.226 21.352 172.03 21.028 173.302 21.028C174.574 21.028 175.426 21.196 175.858 21.532C176.314 21.844 176.578 22.312 176.65 22.936C177.562 21.688 178.99 21.064 180.934 21.064C182.902 21.064 184.762 21.988 186.514 23.836C188.266 25.684 189.142 27.832 189.142 30.28C189.142 32.728 188.266 34.876 186.514 36.724C184.786 38.572 182.938 39.496 180.97 39.496C179.002 39.496 177.574 38.944 176.686 37.84V45.112C176.686 45.664 176.662 46.072 176.614 46.336C176.59 46.6 176.482 46.9 176.29 47.236C176.122 47.596 175.822 47.848 175.39 47.992C174.958 48.136 174.37 48.208 173.626 48.208C172.882 48.208 172.282 48.136 171.826 47.992C171.394 47.848 171.082 47.608 170.89 47.272C170.722 46.936 170.614 46.636 170.566 46.372C170.542 46.108 170.53 45.7 170.53 45.148ZM177.658 28.192C177.106 28.84 176.83 29.548 176.83 30.316C176.83 31.084 177.106 31.792 177.658 32.44C178.234 33.064 178.954 33.376 179.818 33.376C180.706 33.376 181.45 33.064 182.05 32.44C182.674 31.816 182.986 31.108 182.986 30.316C182.986 29.524 182.698 28.816 182.122 28.192C181.546 27.544 180.79 27.22 179.854 27.22C178.942 27.22 178.21 27.544 177.658 28.192ZM191.627 38.308C191.171 38.02 190.943 37.564 190.943 36.94C190.943 36.316 191.399 35.368 192.311 34.096C192.575 33.688 192.995 33.484 193.571 33.484C194.171 33.484 194.975 33.784 195.983 34.384C196.991 34.96 197.903 35.248 198.719 35.248C200.183 35.248 200.915 34.96 200.915 34.384C200.915 33.928 200.111 33.592 198.503 33.376C196.991 33.16 195.491 32.596 194.003 31.684C193.307 31.252 192.731 30.58 192.275 29.668C191.819 28.732 191.591 27.628 191.591 26.356C191.591 22.564 194.195 20.668 199.403 20.668C201.107 20.668 202.859 21.076 204.659 21.892C205.499 22.276 205.919 22.756 205.919 23.332C205.919 23.908 205.655 24.616 205.127 25.456C204.599 26.296 204.059 26.716 203.507 26.716C203.219 26.716 202.679 26.536 201.887 26.176C201.119 25.816 200.279 25.636 199.367 25.636C197.951 25.636 197.243 25.9 197.243 26.428C197.243 27.148 198.059 27.616 199.691 27.832C201.275 28 202.811 28.456 204.299 29.2C204.995 29.536 205.571 30.124 206.027 30.964C206.507 31.78 206.747 32.812 206.747 34.06C206.747 35.308 206.507 36.376 206.027 37.264C205.571 38.128 204.923 38.776 204.083 39.208C202.547 39.952 200.615 40.324 198.287 40.324C195.983 40.324 193.763 39.652 191.627 38.308Z" fill="#5F5F5F"/>
</svg>
