<svg width="36" height="36" viewBox="0 0 36 36" fill="none" xmlns="http://www.w3.org/2000/svg">
<path d="M13.5 13.5H10.5V16.5H13.5V13.5Z" fill="#5F5F5F"/>
<path d="M16.5 13.5H19.5V16.5H16.5V13.5Z" fill="#5F5F5F"/>
<path d="M25.5 13.5H22.5V16.5H25.5V13.5Z" fill="#5F5F5F"/>
<path d="M4.5 7.5V31.5L11.7 26.1C12.2187 25.7095 12.8507 25.4988 13.5 25.5H28.5C30.1569 25.5 31.5 24.1569 31.5 22.5V7.5C31.5 5.84315 30.1569 4.5 28.5 4.5H7.5C5.84315 4.5 4.5 5.84315 4.5 7.5ZM7.5 25.5V7.5H28.5V22.5H12.501C11.8516 22.4983 11.2195 22.709 10.701 23.1L7.5 25.5Z" fill="#5F5F5F"/>
</svg>
