<svg width="24" height="24" viewBox="0 0 24 24" fill="none" xmlns="http://www.w3.org/2000/svg">
<g clip-path="url(#clip0_85_320)">
<path d="M6.387 15.516C4.93455 13.5341 4.28402 11.0768 4.56554 8.63575C4.84706 6.19474 6.03988 3.95004 7.90535 2.35072C9.77082 0.75141 12.1714 -0.084566 14.6267 0.0100437C17.0821 0.104653 19.4112 1.12287 21.1481 2.86099C22.885 4.59911 23.9015 6.92894 23.9944 9.38438C24.0872 11.8398 23.2495 14.2398 21.6489 16.1041C20.0482 17.9684 17.8027 19.1596 15.3615 19.4394C12.9203 19.7192 10.4634 19.0669 8.4825 17.613H8.484C8.439 17.673 8.391 17.73 8.337 17.7855L2.562 23.5605C2.28073 23.842 1.89918 24.0002 1.50128 24.0003C1.10337 24.0005 0.721708 23.8425 0.440247 23.5613C0.158786 23.28 0.000582208 22.8985 0.000441551 22.5006C0.000300895 22.1027 0.158235 21.721 0.439497 21.4395L6.2145 15.6645C6.26812 15.6102 6.32579 15.5601 6.387 15.5145V15.516ZM6 9.75003C6 10.8334 6.21339 11.9062 6.62799 12.9072C7.04259 13.9081 7.65028 14.8176 8.41637 15.5837C9.18245 16.3497 10.0919 16.9574 11.0929 17.372C12.0938 17.7866 13.1666 18 14.25 18C15.3334 18 16.4062 17.7866 17.4071 17.372C18.4081 16.9574 19.3175 16.3497 20.0836 15.5837C20.8497 14.8176 21.4574 13.9081 21.872 12.9072C22.2866 11.9062 22.5 10.8334 22.5 9.75003C22.5 7.56199 21.6308 5.46357 20.0836 3.9164C18.5365 2.36922 16.438 1.50003 14.25 1.50003C12.062 1.50003 9.96354 2.36922 8.41637 3.9164C6.86919 5.46357 6 7.56199 6 9.75003V9.75003Z" fill="#5F5F5F"/>
</g>
<defs>
<clipPath id="clip0_85_320">
<rect width="24" height="24" fill="white"/>
</clipPath>
</defs>
</svg>
