<svg width="24" height="24" viewBox="0 0 24 24" fill="none" xmlns="http://www.w3.org/2000/svg">
<path d="M16.935 6.07288C17.2802 7.3429 17.3619 8.67012 17.175 9.97288V10.0199C17.164 10.1659 17.157 10.2979 17.151 10.4299C17.2499 10.4825 17.3611 10.5074 17.473 10.5019C17.7629 10.4755 18.045 10.3937 18.304 10.2609C18.4199 10.2036 18.5478 10.1748 18.677 10.1769C18.8167 10.1747 18.9555 10.1991 19.086 10.2489C19.4074 10.3229 19.6452 10.5945 19.676 10.9229C19.6893 11.2842 19.3643 11.5972 18.701 11.8619C18.63 11.8849 18.532 11.9229 18.425 11.9619C18.062 12.0709 17.508 12.2509 17.352 12.6129C17.2802 12.8495 17.3168 13.1058 17.452 13.3129L17.464 13.3259C18.1761 14.9433 19.6008 16.137 21.318 16.5549C21.5175 16.5866 21.6621 16.762 21.655 16.9639C21.654 17.0259 21.6418 17.0872 21.619 17.1449C21.426 17.6019 20.596 17.9449 19.089 18.1659C19.0287 18.3137 18.9844 18.4676 18.957 18.6249C18.932 18.7752 18.8962 18.9236 18.85 19.0689C18.803 19.2731 18.6128 19.4117 18.404 19.3939H18.38C18.2342 19.3871 18.0893 19.3674 17.947 19.3349C17.6105 19.2623 17.2672 19.2261 16.923 19.2269C16.6777 19.2235 16.4325 19.2436 16.191 19.2869C15.6829 19.42 15.2099 19.6623 14.805 19.9969C14.0596 20.6237 13.1271 20.9849 12.154 21.0239C12.106 21.0239 12.054 21.0119 12.008 21.0119H11.887C10.9173 20.975 9.98884 20.6097 9.25401 19.9759C8.85388 19.6413 8.38519 19.3986 7.88101 19.2649C7.63432 19.228 7.38541 19.208 7.13601 19.2049C6.79181 19.2099 6.44903 19.2502 6.11301 19.3249C5.97025 19.3585 5.82457 19.3783 5.67801 19.3839C5.46045 19.4 5.26255 19.2581 5.20801 19.0469C5.16001 18.8929 5.13701 18.7339 5.10101 18.5909C5.0729 18.434 5.02832 18.2804 4.96801 18.1329C3.42501 17.9539 2.59501 17.6159 2.40301 17.1469C2.37476 17.0904 2.3581 17.0289 2.35401 16.9659C2.34696 16.764 2.49152 16.5886 2.69101 16.5569C4.40902 16.1388 5.83399 14.9438 6.54501 13.3249L6.55401 13.2999C6.69425 13.0947 6.7312 12.8361 6.65401 12.5999C6.49801 12.2509 5.94301 12.0709 5.58401 11.9499C5.48836 11.9245 5.39503 11.891 5.30501 11.8499C4.41501 11.4999 4.29401 11.1019 4.34301 10.8259C4.48483 10.4334 4.86619 10.1794 5.28301 10.1999C5.38863 10.1994 5.49331 10.2197 5.59101 10.2599C5.86687 10.4015 6.1694 10.4836 6.47901 10.5009C6.60966 10.5048 6.73903 10.4741 6.85401 10.4119L6.81301 9.95388C6.62688 8.65469 6.7089 7.33115 7.05401 6.06488C7.86552 4.18284 9.73275 2.97672 11.782 3.01088L12.117 2.99988H12.166C14.2281 2.97523 16.1054 4.18492 16.935 6.07288Z" fill="#5F5F5F"/>
</svg>
