<svg width="36" height="36" viewBox="0 0 36 36" fill="none" xmlns="http://www.w3.org/2000/svg">
<path d="M19.3455 32.952C18.5489 32.9544 17.7846 32.6379 17.223 32.073L5.47196 20.3205C4.85184 19.7022 4.53387 18.8431 4.60196 17.97L5.35196 8.12102C5.45891 6.6396 6.63925 5.46245 8.12096 5.35952L17.97 4.60952C18.0465 4.59302 18.1245 4.59302 18.201 4.59302C18.9957 4.59506 19.7575 4.91099 20.3205 5.47202L32.073 17.223C32.6358 17.7857 32.9521 18.5489 32.9521 19.3448C32.9521 20.1406 32.6358 20.9039 32.073 21.4665L21.4665 32.073C20.9052 32.6375 20.1415 32.954 19.3455 32.952ZM18.1995 7.59302L8.34296 8.34302L7.59296 18.1995L19.3455 29.952L29.9505 19.347L18.1995 7.59302ZM12.981 15.981C11.5497 15.9813 10.3176 14.9706 10.0381 13.5669C9.75858 12.1632 10.5096 10.7575 11.8318 10.2096C13.154 9.66164 14.6791 10.124 15.4745 11.3139C16.2698 12.5038 16.1138 14.0898 15.102 15.102C14.5407 15.6665 13.777 15.983 12.981 15.981Z" fill="#5F5F5F"/>
</svg>
