<svg width="36" height="36" viewBox="0 0 36 36" fill="none" xmlns="http://www.w3.org/2000/svg">
<path d="M18 33.0001C15.7321 33.0064 13.4929 32.4933 11.454 31.5C10.7078 31.1371 9.99292 30.7131 9.31653 30.2325L9.11103 30.0825C7.25076 28.7094 5.72984 26.9283 4.66503 24.876C3.56363 22.7518 2.99239 20.3927 2.99995 18C2.99995 9.71573 9.71576 3 18 3C26.2843 3 33.0001 9.71573 33.0001 18C33.0076 20.3916 32.4369 22.7496 31.3365 24.873C30.2732 26.9241 28.7544 28.7046 26.8965 30.078C26.1957 30.591 25.4519 31.0427 24.6735 31.428L24.5535 31.488C22.5134 32.4866 20.2714 33.0038 18 33.0001ZM18 25.5C15.7522 25.4956 13.6915 26.751 12.6645 28.7505C16.0266 30.4158 19.9734 30.4158 23.3355 28.7505V28.743C22.3073 26.7457 20.2465 25.4931 18 25.5ZM18 22.5C21.2492 22.5042 24.2451 24.2552 25.8435 27.084L25.866 27.0645L25.887 27.0465L25.8615 27.069L25.8465 27.081C29.64 23.8037 30.9965 18.5135 29.248 13.8152C27.4995 9.11682 23.0147 6.00047 18.0015 6.00047C12.9884 6.00047 8.50352 9.11682 6.75505 13.8152C5.00659 18.5135 6.36303 23.8037 10.1565 27.081C11.7559 24.2536 14.7516 22.5039 18 22.5ZM18 21C14.6863 21 12 18.3137 12 15C12 11.6863 14.6863 9 18 9C21.3137 9 24 11.6863 24 15C24 16.5913 23.3679 18.1174 22.2427 19.2426C21.1175 20.3679 19.5913 21 18 21ZM18 12C16.3432 12 15 13.3431 15 15C15 16.6569 16.3432 18 18 18C19.6569 18 21 16.6569 21 15C21 13.3431 19.6569 12 18 12Z" fill="#5F5F5F"/>
</svg>
